<svg id="Layer_1" enable-background="new 0 0 450 450" height="512" viewBox="0 0 450 450" width="512" xmlns="http://www.w3.org/2000/svg"><g><g clip-rule="evenodd" fill-rule="evenodd"><g fill="#212121"><path d="m388.16 376.4h-325.8c-11.81 0-21.42-9.61-21.42-21.42v-258.48c0-11.81 9.61-21.42 21.42-21.42h325.79c11.81 0 21.42 9.61 21.42 21.42v258.48c.01 11.81-9.6 21.42-21.41 21.42zm-325.8-289.8c-5.46 0-9.9 4.44-9.9 9.9v258.48c0 5.46 4.44 9.9 9.9 9.9h325.79c5.46 0 9.9-4.44 9.9-9.9v-258.48c0-5.46-4.44-9.9-9.9-9.9z"/><path d="m403.46 138.13h-356.39c-3.18 0-5.75-2.58-5.75-5.76s2.57-5.76 5.75-5.76h356.39c3.17 0 5.75 2.58 5.75 5.76-.01 3.18-2.58 5.76-5.75 5.76z"/><path d="m368.55 112.37h-155.85c-3.18 0-5.76-2.58-5.76-5.76s2.58-5.76 5.76-5.76h155.85c3.18 0 5.76 2.58 5.76 5.76s-2.58 5.76-5.76 5.76z"/><circle cx="89.68" cy="106.61" r="7.7"/><circle cx="121.92" cy="106.61" r="7.7"/><circle cx="154.16" cy="106.61" r="7.7"/><path d="m234.16 255.33h-150.92c-3.18 0-5.76-2.58-5.76-5.76v-91.88c0-3.18 2.58-5.76 5.76-5.76h150.91c3.18 0 5.76 2.58 5.76 5.76v91.88c.01 3.19-2.57 5.76-5.75 5.76zm-145.16-11.51h139.4v-80.36h-139.4z"/></g><path d="m288.54 319.41h-141.59c-3.18 0-5.76-2.58-5.76-5.76v-35.91c0-3.18 2.58-5.76 5.76-5.76h150.91c3.18 0 5.76 2.58 5.76 5.76v21.39c0 3.18-2.58 5.76-5.76 5.76s-5.76-2.58-5.76-5.76v-15.63h-139.39v24.39h135.82c3.18 0 5.76 2.58 5.76 5.76.01 3.18-2.57 5.76-5.75 5.76z" fill="#66bb6a"/><path d="m364.61 167.04h-97.9c-3.18 0-5.76-2.58-5.76-5.76s2.58-5.76 5.76-5.76h97.9c3.18 0 5.76 2.58 5.76 5.76 0 3.19-2.58 5.76-5.76 5.76z" fill="#212121"/><path d="m365.5 195.28h-97.9c-3.18 0-5.76-2.58-5.76-5.76s2.58-5.76 5.76-5.76h97.9c3.18 0 5.76 2.58 5.76 5.76s-2.58 5.76-5.76 5.76z" fill="#212121"/><path d="m366.39 223.51h-97.9c-3.18 0-5.76-2.58-5.76-5.76s2.58-5.76 5.76-5.76h97.9c3.18 0 5.76 2.58 5.76 5.76s-2.58 5.76-5.76 5.76z" fill="#212121"/><path d="m367.28 251.74h-97.9c-3.18 0-5.76-2.58-5.76-5.76s2.58-5.76 5.76-5.76h97.9c3.18 0 5.76 2.58 5.76 5.76 0 3.19-2.58 5.76-5.76 5.76z" fill="#212121"/><path d="m318.98 351.08c-1.48 0-2.95-.56-4.08-1.69l-11.51-11.52-4.88 4.88c-1.48 1.48-3.66 2.04-5.67 1.46-2.02-.58-3.55-2.22-4.02-4.26l-9.6-42.5c-.44-1.95.16-3.99 1.59-5.38s3.48-1.96 5.42-1.48l41.77 10.34c2.02.5 3.61 2.05 4.17 4.05s-.01 4.15-1.48 5.62l-4.88 4.88 11.51 11.52c2.25 2.25 2.25 5.9 0 8.15l-14.26 14.25c-1.13 1.12-2.61 1.68-4.08 1.68zm-15.58-27.12c1.48 0 2.95.56 4.08 1.69l11.51 11.52 6.11-6.11-11.51-11.52c-2.25-2.25-2.25-5.9 0-8.14l1.74-1.74-22.81-5.65 5.24 23.2 1.57-1.57c1.12-1.12 2.59-1.68 4.07-1.68z" fill="#66bb6a"/></g></g></svg>