<svg id="Layer_1" enable-background="new 0 0 468 468" height="512" viewBox="0 0 468 468" width="512" xmlns="http://www.w3.org/2000/svg"><g><g><path d="m284.6 285.3-8.6-7.4c-2.1-1.8-2.3-4.9-.5-7s4.9-2.3 7-.5l5.2 4.4 21.2-20.4c2-1.9 5.1-1.9 7.1.1 1.9 2 1.9 5.1-.1 7.1l-24.5 23.6c-1.8 1.6-3.9 2-6.8.1z"/><path d="m441.9 397.4c-1.1-2.5-4.1-3.7-6.6-2.5l-6.5 2.9c3.8-8.3 5.8-17.3 5.8-26.5 0-35.3-28.7-64-64.1-64s-64.1 28.7-64.1 64 28.7 64 64.1 64c2.8 0 5-2.2 5-5s-2.2-5-5-5c-29.8 0-54.1-24.2-54.1-54s24.3-54 54.1-54 54.1 24.2 54.1 54c0 8.4-2 16.7-5.7 24.1l-1.6-10.2c-.4-2.7-3-4.6-5.7-4.1-2.7.4-4.6 3-4.1 5.7l3.7 22.9c.4 3.2 4.1 5.1 7 3.8l21.3-9.4c2.4-1.2 3.5-4.2 2.4-6.7z"/></g><g><g><g><path d="m48.9 411.3h-11.5c-2.8 0-5-2.2-5-5s2.2-5 5-5h11.5c2.8 0 5 2.2 5 5s-2.3 5-5 5z"/><path d="m138.2 411.3h-22.3c-2.8 0-5-2.2-5-5s2.2-5 5-5h22.3c2.8 0 5 2.2 5 5s-2.2 5-5 5zm-44.7 0h-22.3c-2.8 0-5-2.2-5-5s2.2-5 5-5h22.3c2.8 0 5 2.2 5 5s-2.2 5-5 5z"/><path d="m172 411.3h-11.5c-2.8 0-5-2.2-5-5s2.2-5 5-5h11.5c2.8 0 5 2.2 5 5s-2.2 5-5 5z"/></g><path d="m124.3 375.1h-86.9c-2.8 0-5-2.2-5-5s2.2-5 5-5h86.9c2.8 0 5 2.2 5 5s-2.2 5-5 5z"/></g><g><circle cx="435.7" cy="278" r="6.5"/><g><g><g><path d="m81.6 28.4c-3.6 0-6.5 2.9-6.5 6.5s2.9 6.5 6.5 6.5 6.5-2.9 6.5-6.5-2.9-6.5-6.5-6.5z"/><circle cx="122.8" cy="34.9" r="6.5"/></g><g><circle cx="164" cy="34.9" r="6.5"/></g></g><path d="m333.1 39.8h-129.6c-2.8 0-5-2.2-5-5s2.2-5 5-5h129.6c2.8 0 5 2.2 5 5s-2.2 5-5 5z"/></g></g><path d="m415.7 0h-363.4c-13.8 0-25 11.2-25 25v285c0 2.8 2.2 5 5 5s5-2.2 5-5v-239.3h393.4v182.1c0 2.8 2.2 5 5 5s5-2.2 5-5v-227.8c0-13.8-11.2-25-25-25zm-378.4 60.7v-35.7c0-8.3 6.7-15 15-15h363.4c8.3 0 15 6.7 15 15v35.8z"/><path d="m382.8 273.7v-133.2c0-13.8-11.2-25-25-25h-38.4v-9.7c0-2.8-2.2-5-5-5s-5 2.2-5 5v9.7h-70.4v-9.7c0-2.8-2.2-5-5-5s-5 2.2-5 5v9.7h-70.4v-9.7c0-2.8-2.2-5-5-5s-5 2.2-5 5v9.7h-38.4c-13.8 0-25 11.2-25 25v187.4h-60.2c-13.8 0-25 11.2-25 25v90.1c0 13.8 11.2 25 25 25h159.5c13.8 0 25-11.2 25-25v-90.1c0-13.8-11.2-25-25-25h-89.3v-138.2h277.6v83.3c-.7 0-1.5 0-2.2 0-11.1 0-21.8 1.9-31.7 5.3v-35.6c0-9.4-7.6-17-17-17h-52.1c-9.4 0-17 7.6-17 17v51.9c0 9.4 7.6 17 17 17h23.2c-12.5 16.4-19.9 36.8-19.9 58.9 0 53.8 43.7 97.5 97.4 97.5s97.4-43.7 97.4-97.5c.1-49.7-37.1-90.8-85.1-96.8zm-183.4 79.2v90.1c0 8.3-6.7 15-15 15h-159.4c-8.3 0-15-6.7-15-15v-90.1c0-8.3 6.7-15 15-15h159.5c8.2 0 14.9 6.7 14.9 15zm115-211.4c5 0 9 4 9 9s-4 9-9 9-9-4-9-9 4.1-9 9-9zm-80.4 0c5 0 9 4 9 9s-4 9-9 9-9-4-9-9 4-9 9-9zm-80.4 0c5 0 9 4 9 9s-4 9-9 9-9-4-9-9 4-9 9-9zm219.2 38.2h-277.6v-39.2c0-8.3 6.7-15 15-15h38.4v6.7c-8 2.2-14 9.6-14 18.3 0 10.5 8.5 19 19 19s19-8.5 19-19c0-8.7-5.9-16.1-14-18.3v-6.7h70.4v6.7c-8 2.2-14 9.6-14 18.3 0 10.5 8.5 19 19 19s19-8.5 19-19c0-8.7-5.9-16.1-14-18.3v-6.7h70.4v6.7c-8 2.2-14 9.6-14 18.3 0 10.5 8.5 19 19 19s19-8.5 19-19c0-8.7-5.9-16.1-14-18.3v-6.7h38.4c8.3 0 15 6.7 15 15zm-103 121.8c-3.9 0-7-3.1-7-7v-51.9c0-3.9 3.1-7 7-7h52.1c3.9 0 7 3.1 7 7v39.7c-10.1 4.8-19.3 11.3-27.1 19.2zm100.8 156.4c-48.2 0-87.4-39.3-87.4-87.5s39.2-87.5 87.4-87.5 87.4 39.3 87.4 87.5-39.2 87.5-87.4 87.5z"/></g><path d="m374.7 364.6v-15c3 .7 5.9 2 8.4 3.9.7.5 1.6.8 2.5.8 2.8 0 5.1-2.3 5.1-5.1 0-1.2-.5-2.4-1.4-3.4-4.1-3.5-9.3-5.7-14.7-6.2v-4.8c0-2.2-1.7-3.9-3.8-3.9-2.2-.2-4.3 1.8-4.2 3.9v4.6c-10.7 1.1-18.2 8.2-18.2 17.3 0 11.1 8.6 14.5 18.2 17.1v17.3c-4.1-.8-7.9-2.6-11.1-5.2-.9-.7-1.9-1.1-3.1-1.1-2.7.2-4.9 2.5-4.8 5.2 0 1.2.5 2.4 1.4 3.3 4.9 4.4 11.2 7 17.7 7.5v4.3c-.1 2.1 2 4.1 4.1 3.9 2.2 0 3.9-1.8 3.9-3.9v-4.5c11.5-1.1 18.4-7.9 18.4-18.3 0-11.5-9.4-15.2-18.4-17.7zm7.6 19c0 3.1-2 6.6-7.6 7.7v-15c4.6 1.5 7.6 3.3 7.6 7.3zm-15.7-34.4v13.3c-4.1-1.3-7.3-2.7-7.3-6.3s2.9-6.3 7.3-7z"/><path d="m198.2 311.5h-52.1c-9.4 0-17-7.6-17-17v-51.9c0-9.4 7.6-17 17-17h52.1c9.4 0 17 7.6 17 17v51.9c0 9.4-7.6 17-17 17zm-52-75.9c-3.9 0-7 3.1-7 7v51.9c0 3.9 3.1 7 7 7h52.1c3.9 0 7-3.1 7-7v-51.9c0-3.9-3.1-7-7-7z"/></g></svg>