<?xml version="1.0" encoding="UTF-8" standalone="no"?>
<!-- Created with Inkscape (http://www.inkscape.org/) -->

<svg
   version="1.1"
   id="svg1347"
   xml:space="preserve"
   width="682.66669"
   height="682.66669"
   viewBox="0 0 682.66669 682.66669"
   xmlns="http://www.w3.org/2000/svg"
   xmlns:svg="http://www.w3.org/2000/svg"><defs
     id="defs1351"><clipPath
       clipPathUnits="userSpaceOnUse"
       id="clipPath1361"><path
         d="M 0,512 H 512 V 0 H 0 Z"
         id="path1359" /></clipPath></defs><g
     id="g1353"
     transform="matrix(1.3333333,0,0,-1.3333333,0,682.66667)"><g
       id="g1355"><g
         id="g1357"
         clip-path="url(#clipPath1361)"><g
           id="g1363"
           transform="translate(436.3633,192.2852)"><path
             d="m 0,0 v -154.785 c 0,-16.569 -13.432,-30 -30,-30 h -300.727 c -16.568,0 -30,13.431 -30,30 v 437 c 0,16.568 13.432,30 30,30 h 207.495 L 0,188.983 V 35"
             style="fill:none;stroke:#000000;stroke-width:15;stroke-linecap:round;stroke-linejoin:round;stroke-miterlimit:10;stroke-dasharray:none;stroke-opacity:1"
             id="path1365" /></g><g
           id="g1367"
           transform="translate(313.1299,459.5)"><path
             d="m 0,0 h -181.16 c -5.529,0 -10,-4.48 -10,-10 v -36.5 c 0,-5.52 4.471,-10 10,-10 h 147.656"
             style="fill:none;stroke:#000000;stroke-width:15;stroke-linecap:round;stroke-linejoin:round;stroke-miterlimit:10;stroke-dasharray:none;stroke-opacity:1"
             id="path1369" /></g><g
           id="g1371"
           transform="translate(436.3633,381.2681)"><path
             d="m 0,0 h -93.232 c -16.569,0 -30,13.432 -30,30 v 93.232"
             style="fill:none;stroke:#000000;stroke-width:15;stroke-linecap:round;stroke-linejoin:round;stroke-miterlimit:10;stroke-dasharray:none;stroke-opacity:1"
             id="path1373" /></g><g
           id="g1375"
           transform="translate(182.9668,284.25)"><path
             d="m 0,0 h -54 c -3.865,0 -7,3.134 -7,7 v 54 c 0,3.866 3.135,7 7,7 H 0 c 3.866,0 7,-3.134 7,-7 V 7 C 7,3.134 3.866,0 0,0 Z"
             style="fill:none;stroke:#000000;stroke-width:15;stroke-linecap:round;stroke-linejoin:round;stroke-miterlimit:10;stroke-dasharray:none;stroke-opacity:1"
             id="path1377" /></g><g
           id="g1379"
           transform="translate(182.9668,171.25)"><path
             d="m 0,0 h -54 c -3.865,0 -7,3.134 -7,7 v 54 c 0,3.866 3.135,7 7,7 H 0 c 3.866,0 7,-3.134 7,-7 V 7 C 7,3.134 3.866,0 0,0 Z"
             style="fill:none;stroke:#000000;stroke-width:15;stroke-linecap:round;stroke-linejoin:round;stroke-miterlimit:10;stroke-dasharray:none;stroke-opacity:1"
             id="path1381" /></g><g
           id="g1383"
           transform="translate(182.9668,58.25)"><path
             d="m 0,0 h -54 c -3.865,0 -7,3.134 -7,7 v 54 c 0,3.866 3.135,7 7,7 H 0 c 3.866,0 7,-3.134 7,-7 V 7 C 7,3.134 3.866,0 0,0 Z"
             style="fill:none;stroke:#000000;stroke-width:15;stroke-linecap:round;stroke-linejoin:round;stroke-miterlimit:10;stroke-dasharray:none;stroke-opacity:1"
             id="path1385" /></g><g
           id="g1387"
           transform="translate(234.9668,352.25)"><path
             d="M 0,0 H 151.106"
             style="fill:none;stroke:#000000;stroke-width:15;stroke-linecap:round;stroke-linejoin:round;stroke-miterlimit:10;stroke-dasharray:none;stroke-opacity:1"
             id="path1389" /></g><g
           id="g1391"
           transform="translate(234.9668,322.25)"><path
             d="M 0,0 H 151.106"
             style="fill:none;stroke:#000000;stroke-width:15;stroke-linecap:round;stroke-linejoin:round;stroke-miterlimit:10;stroke-dasharray:none;stroke-opacity:1"
             id="path1393" /></g><g
           id="g1395"
           transform="translate(234.9668,239.25)"><path
             d="M 0,0 H 151.106"
             style="fill:none;stroke:#000000;stroke-width:15;stroke-linecap:round;stroke-linejoin:round;stroke-miterlimit:10;stroke-dasharray:none;stroke-opacity:1"
             id="path1397" /></g><g
           id="g1399"
           transform="translate(234.9668,209.25)"><path
             d="M 0,0 H 151.106"
             style="fill:none;stroke:#000000;stroke-width:15;stroke-linecap:round;stroke-linejoin:round;stroke-miterlimit:10;stroke-dasharray:none;stroke-opacity:1"
             id="path1401" /></g><g
           id="g1403"
           transform="translate(234.9668,126.25)"><path
             d="M 0,0 H 151.106"
             style="fill:none;stroke:#000000;stroke-width:15;stroke-linecap:round;stroke-linejoin:round;stroke-miterlimit:10;stroke-dasharray:none;stroke-opacity:1"
             id="path1405" /></g><g
           id="g1407"
           transform="translate(234.9668,96.25)"><path
             d="M 0,0 H 151.106"
             style="fill:none;stroke:#000000;stroke-width:15;stroke-linecap:round;stroke-linejoin:round;stroke-miterlimit:10;stroke-dasharray:none;stroke-opacity:1"
             id="path1409" /></g></g></g></g></svg>
