<svg enable-background="new 0 0 64 64" height="512" viewBox="0 0 64 64" width="512" xmlns="http://www.w3.org/2000/svg"><g id="provit"><path d="m58 43h-2v-30c0-.552-.448-1-1-1h-46c-.552 0-1 .448-1 1v30h-2c-.552 0-1 .448-1 1v7c0 .552.448 1 1 1h52c.552 0 1-.448 1-1v-7c0-.552-.448-1-1-1zm-48-29h44v29h-44zm17 32v-1h10v1zm30 4h-50v-5h18v2c0 .552.448 1 1 1h12c.552 0 1-.448 1-1v-2h18zm-17-11c1.103 0 2-.897 2-2v-1c0-1.103-.897-2-2-2h-15v-1h4c1.103 0 2-.897 2-2v-1c0-1.103-.897-2-2-2h-9v-.5c0-.827-.673-1.5-1.5-1.5h-3c-.827 0-1.5.673-1.5 1.5v12c0 .827.673 1.5 1.5 1.5h3c.827 0 1.5-.673 1.5-1.5v-.5zm-11-9v1h-4c-1.103 0-2 .897-2 2v1c0 1.103.897 2 2 2h15v1h-20v-7zm-11 9h-2v-11h2zm25-13v-1h-2c-1.103 0-2-.897-2-2v-1c0-1.103.897-2 2-2 0-.552.448-1 1-1s1 .448 1 1h1c.552 0 1 .448 1 1s-.448 1-1 1h-3v1h2c1.103 0 2 .897 2 2v1c0 1.103-.897 2-2 2 0 .552-.448 1-1 1s-1-.448-1-1h-1c-.552 0-1-.448-1-1s.448-1 1-1zm-1 6c4.411 0 8-3.589 8-8s-3.589-8-8-8-8 3.589-8 8 3.589 8 8 8zm0-14c3.309 0 6 2.691 6 6s-2.691 6-6 6-6-2.691-6-6 2.691-6 6-6z"/></g></svg>